<svg xmlns="http://www.w3.org/2000/svg" version="1.1" xmlns:xlink="http://www.w3.org/1999/xlink" width="1000" height="1000"><style>
    #light-icon {
      display: inline;
    }
    #dark-icon {
      display: none;
    }

    @media (prefers-color-scheme: dark) {
      #light-icon {
        display: none;
      }
      #dark-icon {
        display: inline;
      }
    }
  </style><g id="light-icon"><svg xmlns="http://www.w3.org/2000/svg" version="1.1" xmlns:xlink="http://www.w3.org/1999/xlink" width="1000" height="1000"><g><g transform="matrix(1.3888888888888888,0,0,1.3888888888888888,0,0)"><svg xmlns="http://www.w3.org/2000/svg" width="720" height="720" viewBox="0 0 720 720" fill="none"><path d="M553.084 52.5895C408.872 -30.3851 222.815 -1.61069 111.351 145.292L59.0636 115.208L4.23242 210.505L58.2063 241.56C-6.49224 408.635 68.7823 582.159 205.404 660.767C311.665 721.906 421.462 730.076 529.25 683.208L486.496 572.174C412.303 603.573 338.077 605.766 261.333 561.61C177.842 513.572 130.362 408.799 163.624 302.214L623.246 566.666L675.651 475.585C750.376 345.71 726.812 152.547 553.084 52.5895ZM215.925 205.461C291.378 115.293 406.074 99.3408 501.372 154.172C586.549 203.18 639.113 303.02 576.033 412.655L215.925 205.461Z" fill="#416943"></path></svg></g></g></svg></g><g id="dark-icon"><svg xmlns="http://www.w3.org/2000/svg" version="1.1" xmlns:xlink="http://www.w3.org/1999/xlink" width="1000" height="1000"><g><g transform="matrix(1.3888888888888888,0,0,1.3888888888888888,0,0)"><svg xmlns="http://www.w3.org/2000/svg" width="720" height="720" viewBox="0 0 720 720" fill="none"><path d="M553.084 52.5895C408.872 -30.3851 222.815 -1.61069 111.351 145.292L59.0636 115.208L4.23242 210.505L58.2063 241.56C-6.49224 408.635 68.7823 582.159 205.404 660.767C311.665 721.906 421.462 730.076 529.25 683.208L486.496 572.174C412.303 603.573 338.077 605.766 261.333 561.61C177.842 513.572 130.362 408.799 163.624 302.214L623.246 566.666L675.651 475.585C750.376 345.71 726.812 152.547 553.084 52.5895ZM215.925 205.461C291.378 115.293 406.074 99.3408 501.372 154.172C586.549 203.18 639.113 303.02 576.033 412.655L215.925 205.461Z" fill="#FAF8F2"></path></svg></g></g></svg></g></svg>